0
SECTION
2
HEADER
9
$INSUNITS
70
4
9
$ACADVER
1
AC1014
9
$HANDSEED
5
FFFF
0
ENDSEC
0
SECTION
2
TABLES
0
TABLE
2
VPORT
5
8
100
AcDbSymbolTable
0
ENDTAB
0
TABLE
2
LTYPE
5
5
100
AcDbSymbolTable
0
LTYPE
5
14
100
AcDbSymbolTableRecord
100
AcDbLinetypeTableRecord
2
BYBLOCK
70
0
0
LTYPE
5
15
100
AcDbSymbolTableRecord
100
AcDbLinetypeTableRecord
2
BYLAYER
70
0
0
ENDTAB
0
TABLE
2
LAYER
5
2
100
AcDbSymbolTable
70
2
0
LAYER
5
50
100
AcDbSymbolTableRecord
100
AcDbLayerTableRecord
2
0
70
0
6
CONTINUOUS
0
ENDTAB
0
TABLE
2
STYLE
5
3
100
AcDbSymbolTable
70
1
0
STYLE
5
11
100
AcDbSymbolTableRecord
100
AcDbTextStyleTableRecord
2
STANDARD
70
0
0
ENDTAB
0
TABLE
2
VIEW
5
6
100
AcDbSymbolTable
70
0
0
ENDTAB
0
TABLE
2
UCS
5
7
100
AcDbSymbolTable
70
0
0
ENDTAB
0
TABLE
2
APPID
5
9
100
AcDbSymbolTable
70
2
0
APPID
5
12
100
AcDbSymbolTableRecord
100
AcDbRegAppTableRecord
2
ACAD
70
0
0
ENDTAB
0
TABLE
2
DIMSTYLE
5
A
100
AcDbSymbolTable
70
1
0
ENDTAB
0
TABLE
2
BLOCK_RECORD
5
1
100
AcDbSymbolTable
70
1
0
BLOCK_RECORD
5
1F
100
AcDbSymbolTableRecord
100
AcDbBlockTableRecord
2
*MODEL_SPACE
0
BLOCK_RECORD
5
1B
100
AcDbSymbolTableRecord
100
AcDbBlockTableRecord
2
*PAPER_SPACE
0
ENDTAB
0
ENDSEC
0
SECTION
2
BLOCKS
0
BLOCK
5
20
100
AcDbEntity
100
AcDbBlockBegin
2
*MODEL_SPACE
0
ENDBLK
5
21
100
AcDbEntity
100
AcDbBlockEnd
0
BLOCK
5
1C
100
AcDbEntity
100
AcDbBlockBegin
2
*PAPER_SPACE
0
ENDBLK
5
1D
100
AcDbEntity
100
AcDbBlockEnd
0
ENDSEC
0
SECTION
2
ENTITIES
0
ARC
5
100
100
AcDbEntity
8
0
100
AcDbCircle
10
10
20
0
30
0
40
10.000000149011612
210
0
220
0
230
1
100
AcDbArc
50
180
51
360
0
LINE
5
101
100
AcDbEntity
8
0
100
AcDbLine
10
20
20
0
30
0
11
0
21
0
31
0
0
LINE
5
102
100
AcDbEntity
8
0
100
AcDbLine
10
0
20
0
30
0
11
0
21
170
31
0
0
LINE
5
103
100
AcDbEntity
8
0
100
AcDbLine
10
20
20
170
30
0
11
20
21
0
31
0
0
LINE
5
104
100
AcDbEntity
8
0
100
AcDbLine
10
0
20
10.000000149011612
30
0
11
20
21
10.000000149011612
31
0
0
LINE
5
105
100
AcDbEntity
8
0
100
AcDbLine
10
14.704760012186721
20
11.252612710753677
30
0
11
20
21
11.252612710753677
31
0
0
LINE
5
106
100
AcDbEntity
8
0
100
AcDbLine
10
13.000000193715096
20
11.252612710753677
30
0
11
4.3707153901252305
21
11.252612710753677
31
0
0
LINE
5
107
100
AcDbEntity
8
0
100
AcDbLine
10
2.6018248692318191
20
11.252612710753677
30
0
11
0
21
11.252612710753677
31
0
0
LINE
5
108
100
AcDbEntity
8
0
100
AcDbLine
10
8.2631723785068694
20
12.55600572614882
30
0
11
0
21
12.500000186264515
31
0
0
LINE
5
109
100
AcDbEntity
8
0
100
AcDbLine
10
2.5911894763504888
20
14.160927086411373
30
0
11
0
21
14.16092708641137
31
0
0
LINE
5
110
100
AcDbEntity
8
0
100
AcDbLine
10
4.5000000670552254
20
14.160927086411375
30
0
11
13.000000193715096
21
14.16092708641138
31
0
0
LINE
5
111
100
AcDbEntity
8
0
100
AcDbLine
10
9.9566854561044131
20
12.55600572614882
30
0
11
18.552872724305715
21
12.55600572614882
31
0
0
LINE
5
112
100
AcDbEntity
8
0
100
AcDbLine
10
20.000000298023224
20
14.16092708641138
30
0
11
14.716703828538664
21
14.16092708641138
31
0
0
LINE
5
113
100
AcDbEntity
8
0
100
AcDbLine
10
9.9338824797001308
20
15.57318887559752
30
0
11
18.500000275671482
21
15.57318887559752
31
0
0
LINE
5
114
100
AcDbEntity
8
0
100
AcDbLine
10
14.632051114023913
20
17.253348726970906
30
0
11
20.000000298023224
21
17.253348726970906
31
0
0
LINE
5
115
100
AcDbEntity
8
0
100
AcDbLine
10
13.000000193715096
20
17.253348726970906
30
0
11
4.5906312981651256
21
17.253348726970906
31
0
0
LINE
5
116
100
AcDbEntity
8
0
100
AcDbLine
10
8.3130025189955941
20
15.561246917589305
30
0
11
0
21
15.500000230967999
31
0
0
LINE
5
117
100
AcDbEntity
8
0
100
AcDbLine
10
2.6240624321512374
20
17.253348726970906
30
0
11
0
21
17.253348726970906
31
0
0
LINE
5
118
100
AcDbEntity
8
0
100
AcDbLine
10
8.316831675052752
20
18.594191135616743
30
0
11
0
21
18.596308951278139
31
0
0
LINE
5
119
100
AcDbEntity
8
0
100
AcDbLine
10
2.6589586048501479
20
20.228494857489203
30
0
11
0
21
20.290034185190965
31
0
0
LINE
5
120
100
AcDbEntity
8
0
100
AcDbLine
10
4.6027510274613537
20
20.228494857489203
30
0
11
13.000000193715096
21
20.228494857489203
31
0
0
LINE
5
121
100
AcDbEntity
8
0
100
AcDbLine
10
18.50559585011187
20
18.594191135616743
30
0
11
10.000000149011612
21
18.594191135616743
31
0
0
LINE
5
122
100
AcDbEntity
8
0
100
AcDbLine
10
14.662103949060036
20
20.228494857489203
30
0
11
20
21
20.228494857489203
31
0
0
LINE
5
123
100
AcDbEntity
8
0
100
AcDbLine
10
18.526044055993466
20
21.602166825867446
30
0
11
10.000000149011612
21
21.602166825867446
31
0
0
LINE
5
124
100
AcDbEntity
8
0
100
AcDbLine
10
8.320567961843091
20
21.602166825867446
30
0
11
0
21
21.577868073262323
31
0
0
LINE
5
125
100
AcDbEntity
8
0
100
AcDbLine
10
2.6589586048501457
20
23.327378260830965
30
0
11
0
21
23.327378260830962
31
0
0
LINE
5
126
100
AcDbEntity
8
0
100
AcDbLine
10
13.000000193715096
20
23.327378260830965
30
0
11
4.4570662976290221
21
23.327378260830965
31
0
0
LINE
5
127
100
AcDbEntity
8
0
100
AcDbLine
10
14.662103949060036
20
23.327378260830965
30
0
11
20
21
23.327378260830965
31
0
0
LINE
5
128
100
AcDbEntity
8
0
100
AcDbLine
10
18.526044055993463
20
24.712407159322801
30
0
11
10.000000149011612
21
24.712407159322801
31
0
0
LINE
5
129
100
AcDbEntity
8
0
100
AcDbLine
10
8.2476717040277308
20
24.712407159322801
30
0
11
0
21
24.663809654112555
31
0
0
LINE
5
130
100
AcDbEntity
8
0
100
AcDbLine
10
2.5617635944296691
20
26.316124831260716
30
0
11
0
21
26.316124831260712
31
0
0
LINE
5
131
100
AcDbEntity
8
0
100
AcDbLine
10
13.000000193715096
20
26.316124831260716
30
0
11
4.5542613080494965
21
26.316124831260716
31
0
0
LINE
5
132
100
AcDbEntity
8
0
100
AcDbLine
10
14.735438649594752
20
26.316124831260716
30
0
11
20
21
26.316124831260716
31
0
0
LINE
5
133
100
AcDbEntity
8
0
100
AcDbLine
10
9.9728831389912447
20
27.725452482357671
30
0
11
18.526044055993459
21
27.725452482357671
31
0
0
LINE
5
134
100
AcDbEntity
8
0
100
AcDbLine
10
8.2322487818872165
20
27.725452482357671
30
0
11
0
21
27.729420627986016
31
0
0
LINE
5
135
100
AcDbEntity
8
0
100
AcDbLine
10
2.719659990275245
20
29.353367923614009
30
0
11
0
21
29.353367923614005
31
0
0
LINE
5
136
100
AcDbEntity
8
0
100
AcDbLine
10
13.000000193715096
20
29.353367923614009
30
0
11
4.5384809613785997
21
29.353367923614009
31
0
0
LINE
5
137
100
AcDbEntity
8
0
100
AcDbLine
10
14.736869977922398
20
29.353367923614009
30
0
11
20
21
29.353367923614009
31
0
0
LINE
5
138
100
AcDbEntity
8
0
100
AcDbLine
10
18.504427703779346
20
30.739136282549904
30
0
11
10.000000149011612
21
30.739136282549904
31
0
0
LINE
5
139
100
AcDbEntity
8
0
100
AcDbLine
10
8.3060386872355423
20
30.739136282549904
30
0
11
0
21
30.739136282549893
31
0
0
LINE
5
140
100
AcDbEntity
8
0
100
AcDbLine
10
2.6330494678417549
20
32.428041470003009
30
0
11
0
21
32.428041470003009
31
0
0
LINE
5
141
100
AcDbEntity
8
0
100
AcDbLine
10
13.000000193715096
20
32.428041470003009
30
0
11
4.5384809613785997
21
32.428041470003009
31
0
0
LINE
5
142
100
AcDbEntity
8
0
100
AcDbLine
10
14.715217347314024
20
32.428041470003009
30
0
11
20
21
32.428041470003009
31
0
0
LINE
5
143
100
AcDbEntity
8
0
100
AcDbLine
10
9.9949438746886567
20
33.748851937113777
30
0
11
18.48277507317097
21
33.748851937113777
31
0
0
LINE
5
144
100
AcDbEntity
8
0
100
AcDbLine
10
8.21942816480205
20
33.748851937113777
30
0
11
0
21
33.727199306505405
31
0
0
LINE
5
145
100
AcDbEntity
8
0
100
AcDbLine
10
2.6738742554468287
20
35.444075955854856
30
0
11
0
21
35.402937811188757
31
0
0
LINE
5
146
100
AcDbEntity
8
0
100
AcDbLine
10
13.000000193715096
20
35.444075955854856
30
0
11
4.4702727094088068
21
35.444075955854856
31
0
0
LINE
5
147
100
AcDbEntity
8
0
100
AcDbLine
10
14.662103949060036
20
35.444075955854856
30
0
11
20
21
35.444075955854856
31
0
0
LINE
5
148
100
AcDbEntity
8
0
100
AcDbLine
10
9.976973986171771
20
36.76738962438872
30
0
11
18.360159300757584
21
36.76738962438872
31
0
0
LINE
5
149
100
AcDbEntity
8
0
100
AcDbLine
10
8.3111374694772007
20
36.76738962438872
30
0
11
0
21
36.780663417389306
31
0
0
LINE
5
150
100
AcDbEntity
8
0
100
AcDbLine
10
2.6933430765431732
20
38.408040364548768
30
0
11
0
21
38.408040364548761
31
0
0
LINE
5
151
100
AcDbEntity
8
0
100
AcDbLine
10
4.4767698679508001
20
38.408040364548768
30
0
11
13.000000193715096
21
38.408040364548768
31
0
0
LINE
5
152
100
AcDbEntity
8
0
100
AcDbLine
10
14.753766753437262
20
38.408040364548782
30
0
11
20.000000298023224
21
38.408040364548782
31
0
0
LINE
5
153
100
AcDbEntity
8
0
100
AcDbLine
10
18.387498840930302
20
39.834781797674879
30
0
11
10.000000149011612
21
39.834781797674879
31
0
0
LINE
5
154
100
AcDbEntity
8
0
100
AcDbLine
10
14.753766753437262
20
41.462158744834326
30
0
11
20.000000298023224
21
41.462158744834326
31
0
0
LINE
5
155
100
AcDbEntity
8
0
100
AcDbLine
10
4.4544770330582049
20
41.462158744834326
30
0
11
13.000000193715096
21
41.462158744834326
31
0
0
LINE
5
156
100
AcDbEntity
8
0
100
AcDbLine
10
8.3111374694771989
20
39.834781797674879
30
0
11
0
21
39.834781797674871
31
0
0
LINE
5
157
100
AcDbEntity
8
0
100
AcDbLine
10
2.6264645718653847
20
41.462158744834326
30
0
11
0
21
41.462158744834326
31
0
0
LINE
5
158
100
AcDbEntity
8
0
100
AcDbLine
10
8.1996732950142217
20
42.911193012853033
30
0
11
0
21
42.844314508175245
31
0
0
LINE
5
159
100
AcDbEntity
8
0
100
AcDbLine
10
2.5818789020801933
20
44.516277125119892
30
0
11
0
21
44.516277125119892
31
0
0
LINE
5
160
100
AcDbEntity
8
0
100
AcDbLine
10
4.4321841981656078
20
44.516277125119892
30
0
11
13.000000193715096
21
44.516277125119892
31
0
0
LINE
5
161
100
AcDbEntity
8
0
100
AcDbLine
10
18.476670180500683
20
42.911193012853033
30
0
11
10.000000149011612
21
42.911193012853033
31
0
0
LINE
5
162
100
AcDbEntity
8
0
100
AcDbLine
10
14.776059588329854
20
44.516277125119892
30
0
11
20.000000298023224
21
44.516277125119892
31
0
0
LINE
5
163
100
AcDbEntity
8
0
100
AcDbLine
10
18.543548685178468
20
45.876140053568221
30
0
11
10.000000149011612
21
45.876140053568221
31
0
0
LINE
5
164
100
AcDbEntity
8
0
100
AcDbLine
10
14.753766753437256
20
47.525809835620272
30
0
11
20
21
47.525809835620272
31
0
0
LINE
5
165
100
AcDbEntity
8
0
100
AcDbLine
10
13.000000193715096
20
47.525809835620272
30
0
11
4.4321841981656078
21
47.525809835620272
31
0
0
LINE
5
166
100
AcDbEntity
8
0
100
AcDbLine
10
8.244258964799414
20
45.876140053568221
30
0
11
0
21
45.876140053568207
31
0
0
LINE
5
167
100
AcDbEntity
8
0
100
AcDbLine
10
2.693343076543171
20
47.525809835620272
30
0
11
0
21
47.525809835620265
31
0
0
LINE
5
168
100
AcDbEntity
8
0
100
AcDbLine
10
8.244258964799414
20
48.93025843385378
30
0
11
0
21
49.000000730156898
31
0
0
LINE
5
169
100
AcDbEntity
8
0
100
AcDbLine
10
2.6933430765431665
20
50.557635381013242
30
0
11
0
21
50.557635381013235
31
0
0
LINE
5
170
100
AcDbEntity
8
0
100
AcDbLine
10
12.903461457351842
20
50.557635381013242
30
0
11
4.4767698679507983
21
50.557635381013242
31
0
0
LINE
5
171
100
AcDbEntity
8
0
100
AcDbLine
10
18.543548685178468
20
48.93025843385378
30
0
11
10.000000149011612
21
48.93025843385378
31
0
0
LINE
5
172
100
AcDbEntity
8
0
100
AcDbLine
10
14.776059588329851
20
50.557635381013242
30
0
11
20.000000298023224
21
50.557635381013242
31
0
0
LINE
5
173
100
AcDbEntity
8
0
100
AcDbLine
10
10.000000149011612
20
51.939791144354146
30
0
11
18.543548685178468
21
51.939791144354139
31
0
0
LINE
5
174
100
AcDbEntity
8
0
100
AcDbLine
10
8.3111374694771971
20
51.939791144354146
30
0
11
0
21
51.939791144354153
31
0
0
LINE
5
175
100
AcDbEntity
8
0
100
AcDbLine
10
2.8080408392187826
20
53.665107709599567
30
0
11
0
21
53.665107709599582
31
0
0
LINE
5
176
100
AcDbEntity
8
0
100
AcDbLine
10
13.000000193715096
20
53.665107709599539
30
0
11
4.37136809984752
21
53.66510770959956
31
0
0
LINE
5
177
100
AcDbEntity
8
0
100
AcDbLine
10
15.000000223517418
20
53.665107709599525
30
0
11
20.000000298023224
21
53.665107709599525
31
0
0
LINE
5
178
100
AcDbEntity
8
0
100
AcDbLine
10
10.135341052484621
20
55.032549002753854
30
0
11
18.55061609645869
21
55.032549002753854
31
0
0
LINE
5
179
100
AcDbEntity
8
0
100
AcDbLine
10
8.3111374694771971
20
55.065097185943841
30
0
11
0
21
55.000000819563866
31
0
0
LINE
5
180
100
AcDbEntity
8
0
100
AcDbLine
10
2.7573837189736894
20
56.670306425065078
30
0
11
0
21
56.670306425065078
31
0
0
LINE
5
181
100
AcDbEntity
8
0
100
AcDbLine
10
4.5303518034144208
20
56.670306425065078
30
0
11
13.000000193715096
21
56.670306425065078
31
0
0
LINE
5
182
100
AcDbEntity
8
0
100
AcDbLine
10
20.000000298023224
20
56.670306425065078
30
0
11
15.000000223517418
21
56.670306425065078
31
0
0
LINE
5
183
100
AcDbEntity
8
0
100
AcDbLine
10
10.000000149011612
20
58.028814437818362
30
0
11
18.645019800325681
21
58.028814437818355
31
0
0
LINE
5
184
100
AcDbEntity
8
0
100
AcDbLine
10
8.2835180081396018
20
58.028814437818362
30
0
11
0
21
58.028814437818369
31
0
0
LINE
5
185
100
AcDbEntity
8
0
100
AcDbLine
10
2.7573837189736894
20
59.663629165029953
30
0
11
0
21
59.686654724568143
31
0
0
LINE
5
186
100
AcDbEntity
8
0
100
AcDbLine
10
13.000000193715096
20
59.663629165029953
30
0
11
4.5073262438762285
21
59.663629165029953
31
0
0
LINE
5
187
100
AcDbEntity
8
0
100
AcDbLine
10
14.776725797909545
20
59.663629165029953
30
0
11
20
21
59.663629165029953
31
0
0
LINE
5
188
100
AcDbEntity
8
0
100
AcDbLine
10
10.000000149011612
20
61.000000908970833
30
0
11
18.645019800325681
21
61.000000908970833
31
0
0
LINE
5
189
100
AcDbEntity
8
0
100
AcDbLine
10
8.3065435676777906
20
61.000000908970833
30
0
11
0
21
61.000000908970833
31
0
0
LINE
5
190
100
AcDbEntity
8
0
100
AcDbLine
10
2.711332599897307
20
62.633926345456629
30
0
11
0
21
62.633926345456629
31
0
0
LINE
5
191
100
AcDbEntity
8
0
100
AcDbLine
10
13.000000193715096
20
62.633926345456629
30
0
11
4.507326243876224
21
62.633926345456629
31
0
0
LINE
5
192
100
AcDbEntity
8
0
100
AcDbLine
10
14.891853595600502
20
62.633926345456629
30
0
11
20
21
62.633926345456629
31
0
0
LINE
5
193
100
AcDbEntity
8
0
100
AcDbLine
10
18.668045359863875
20
64.130587715439063
30
0
11
10.000000149011612
21
64.130587715439063
31
0
0
LINE
5
194
100
AcDbEntity
8
0
100
AcDbLine
10
8.3065435676777906
20
64.130587715439063
30
0
11
0
21
64.130587715439063
31
0
0
LINE
5
195
100
AcDbEntity
8
0
100
AcDbLine
10
2.7343581594354949
20
65.742376883112456
30
0
11
0
21
65.742376883112456
31
0
0
LINE
5
196
100
AcDbEntity
8
0
100
AcDbLine
10
13.000000193715096
20
65.742376883112456
30
0
11
4.5533773629526113
21
65.742376883112456
31
0
0
LINE
5
197
100
AcDbEntity
8
0
100
AcDbLine
10
14.868828036062309
20
65.742376883112456
30
0
11
20
21
65.742376883112456
31
0
0
LINE
5
198
100
AcDbEntity
8
0
100
AcDbLine
10
10.171613890271285
20
67.12391045540393
30
0
11
18.645019800325681
21
67.12391045540393
31
0
0
LINE
5
199
100
AcDbEntity
8
0
100
AcDbLine
10
8.2835180081395983
20
67.12391045540393
30
0
11
0
21
67.0000009983778
31
0
0
LINE
5
200
100
AcDbEntity
8
0
100
AcDbLine
10
2.7113325998973048
20
68.71267406353914
30
0
11
0
21
68.712674063539126
31
0
0
LINE
5
201
100
AcDbEntity
8
0
100
AcDbLine
10
13.000000193715096
20
68.71267406353914
30
0
11
4.507326243876224
21
68.71267406353914
31
0
0
LINE
5
202
100
AcDbEntity
8
0
100
AcDbLine
10
14.868828036062309
20
68.71267406353914
30
0
11
20
21
68.71267406353914
31
0
0
LINE
5
203
100
AcDbEntity
8
0
100
AcDbLine
10
0
20
70
30
0
11
20
21
70
31
0
0
LINE
5
204
100
AcDbEntity
8
0
100
AcDbLine
10
0
20
100
30
0
11
20
21
100
31
0
0
LINE
5
205
100
AcDbEntity
8
0
100
AcDbLine
10
18.739364493759741
20
101.69378677295509
30
0
11
10.562316841084993
21
101.69378677295509
31
0
0
LINE
5
206
100
AcDbEntity
8
0
100
AcDbLine
10
8.4884279436674852
20
101.69378677295509
30
0
11
0
21
101.69378677295509
31
0
0
LINE
5
207
100
AcDbEntity
8
0
100
AcDbLine
10
3.0000000447034836
20
103.02700106415205
30
0
11
0
21
103.02700106415205
31
0
0
LINE
5
208
100
AcDbEntity
8
0
100
AcDbLine
10
13.301297016725556
20
103.02700106415205
30
0
11
5.000000074505806
21
103.02700106415205
31
0
0
LINE
5
209
100
AcDbEntity
8
0
100
AcDbLine
10
15.361888289394084
20
103.02700106415205
30
0
11
20
21
103.02700106415205
31
0
0
LINE
5
210
100
AcDbEntity
8
0
100
AcDbLine
10
10.474665732336712
20
104.7041180184994
30
0
11
18.69106005899242
21
104.7041180184994
31
0
0
LINE
5
211
100
AcDbEntity
8
0
100
AcDbLine
10
8.5583055395307177
20
104.7041180184994
30
0
11
0
21
104.7041180184994
31
0
0
LINE
5
212
100
AcDbEntity
8
0
100
AcDbLine
10
2.9843022174608524
20
106.14138816310388
30
0
11
0
21
106.14138816310388
31
0
0
LINE
5
213
100
AcDbEntity
8
0
100
AcDbLine
10
5.000000074505806
20
106.14138816310388
30
0
11
13.27476686233544
21
106.14138816310388
31
0
0
LINE
5
214
100
AcDbEntity
8
0
100
AcDbLine
10
20.000000298023224
20
106.14138816310388
30
0
11
15.347771708103707
21
106.14138816310388
31
0
0
LINE
5
215
100
AcDbEntity
8
0
100
AcDbLine
10
18.739357659839044
20
107.71850889723862
30
0
11
10.500000156462193
21
107.71850889723862
31
0
0
LINE
5
216
100
AcDbEntity
8
0
100
AcDbLine
10
8.5260590551815074
20
107.71850889723862
30
0
11
0
21
107.71850889723862
31
0
0
LINE
5
217
100
AcDbEntity
8
0
100
AcDbLine
10
2.9954615088858239
20
109.18305737639706
30
0
11
0
21
109.18305737639706
31
0
0
LINE
5
218
100
AcDbEntity
8
0
100
AcDbLine
10
5.000000074505806
20
109.18305737639706
30
0
11
13.305111987172202
21
109.18305737639706
31
0
0
LINE
5
219
100
AcDbEntity
8
0
100
AcDbLine
10
20.000000298023224
20
109.18305737639706
30
0
11
15.347771708103711
21
109.18305737639706
31
0
0
LINE
5
220
100
AcDbEntity
8
0
100
AcDbLine
10
10.530178026661474
20
110.79943628592829
30
0
11
18.816439158742114
21
110.79943628592829
31
0
0
LINE
5
221
100
AcDbEntity
8
0
100
AcDbLine
10
8.4682479310041998
20
110.82103922808741
30
0
11
0
21
110.82103922808741
31
0
0
LINE
5
222
100
AcDbEntity
8
0
100
AcDbLine
10
3.0000000447034836
20
112.189235833617
30
0
11
0
21
112.189235833617
31
0
0
LINE
5
223
100
AcDbEntity
8
0
100
AcDbLine
10
4.9803101056400232
20
112.189235833617
30
0
11
13.305111987172202
21
112.189235833617
31
0
0
LINE
5
224
100
AcDbEntity
8
0
100
AcDbLine
10
15.270690209200632
20
112.189235833617
30
0
11
20.000000298023224
21
112.189235833617
31
0
0
LINE
5
225
100
AcDbEntity
8
0
100
AcDbLine
10
10.530178026661474
20
113.8079473105816
30
0
11
18.816439158742114
21
113.8079473105816
31
0
0
LINE
5
226
100
AcDbEntity
8
0
100
AcDbLine
10
8.6150827468847542
20
113.8079473105816
30
0
11
0
21
113.8079473105816
31
0
0
LINE
5
227
100
AcDbEntity
8
0
100
AcDbLine
10
3.0000000447034836
20
115.20321029975163
30
0
11
0
21
115.20321029975163
31
0
0
LINE
5
228
100
AcDbEntity
8
0
100
AcDbLine
10
13.298028408043432
20
115.20321029975163
30
0
11
5.000000074505806
21
115.20321029975163
31
0
0
LINE
5
229
100
AcDbEntity
8
0
100
AcDbLine
10
15.379337590780622
20
115.20321029975163
30
0
11
20.000000298023224
21
115.20321029975163
31
0
0
LINE
5
230
100
AcDbEntity
8
0
100
AcDbLine
10
10.426412727199487
20
116.95839545708991
30
0
11
19.000000283122063
21
116.95839545708991
31
0
0
LINE
5
231
100
AcDbEntity
8
0
100
AcDbLine
10
2.8167752153355496
20
118.3389049172068
30
0
11
0
21
118.3389049172068
31
0
0
LINE
5
232
100
AcDbEntity
8
0
100
AcDbLine
10
8.4734969055706895
20
116.95839545708991
30
0
11
0
21
116.95839545708991
31
0
0
LINE
5
233
100
AcDbEntity
8
0
100
AcDbLine
10
13.32211549720081
20
118.3389049172068
30
0
11
5.000000074505806
21
118.3389049172068
31
0
0
LINE
5
234
100
AcDbEntity
8
0
100
AcDbLine
10
15.308702281271485
20
118.3389049172068
30
0
11
20.000000298023224
21
118.3389049172068
31
0
0
LINE
5
235
100
AcDbEntity
8
0
100
AcDbLine
10
10.392808746084938
20
120.0224530393006
30
0
11
19.000000283122063
21
120.0224530393006
31
0
0
LINE
5
236
100
AcDbEntity
8
0
100
AcDbLine
10
8.4690528736085824
20
120.0224530393006
30
0
11
0
21
120.0224530393006
31
0
0
LINE
5
237
100
AcDbEntity
8
0
100
AcDbLine
10
2.772736783678591
20
121.37158053428402
30
0
11
0
21
121.37158053428402
31
0
0
LINE
5
238
100
AcDbEntity
8
0
100
AcDbLine
10
13.365886003548397
20
121.37158053428402
30
0
11
5.000000074505806
21
121.37158053428402
31
0
0
LINE
5
239
100
AcDbEntity
8
0
100
AcDbLine
10
15.08977113602721
20
121.37158053428402
30
0
11
20
21
121.37158053428402
31
0
0
LINE
5
240
100
AcDbEntity
8
0
100
AcDbLine
10
10.417792588584629
20
123.12044950926251
30
0
11
19.000000283122063
21
123.12044950926251
31
0
0
LINE
5
241
100
AcDbEntity
8
0
100
AcDbLine
10
8.4940367161082744
20
123.12044950926251
30
0
11
0
21
123.12044950926251
31
0
0
LINE
5
242
100
AcDbEntity
8
0
100
AcDbLine
10
2.7727367836785888
20
124.49456084674564
30
0
11
0
21
124.49456084674564
31
0
0
LINE
5
243
100
AcDbEntity
8
0
100
AcDbLine
10
13.365886003548395
20
124.49456084674564
30
0
11
5.000000074505806
21
124.49456084674564
31
0
0
LINE
5
244
100
AcDbEntity
8
0
100
AcDbLine
10
15.239674191025365
20
124.49456084674564
30
0
11
20
21
124.49456084674564
31
0
0
LINE
5
245
100
AcDbEntity
8
0
100
AcDbLine
10
10.417792588584629
20
126.16847829422505
30
0
11
19.000000283122063
21
126.16847829422505
31
0
0
LINE
5
246
100
AcDbEntity
8
0
100
AcDbLine
10
8.4690528736085806
20
126.16847829422505
30
0
11
0
21
126.16847829422505
31
0
0
LINE
5
247
100
AcDbEntity
8
0
100
AcDbLine
10
2.722769098679203
20
127.51760578920849
30
0
11
0
21
127.51760578920849
31
0
0
LINE
5
248
100
AcDbEntity
8
0
100
AcDbLine
10
13.265950633549624
20
127.51760578920849
30
0
11
5.000000074505806
21
127.51760578920849
31
0
0
LINE
5
249
100
AcDbEntity
8
0
100
AcDbLine
10
15.189706506025979
20
127.51760578920849
30
0
11
20.000000298023224
21
127.51760578920849
31
0
0
LINE
5
250
100
AcDbEntity
8
0
100
AcDbLine
10
10.292873376086165
20
129.16653939418819
30
0
11
19.000000283122063
21
129.16653939418819
31
0
0
LINE
5
251
100
AcDbEntity
8
0
100
AcDbLine
10
8.5689882436073521
20
129.16653939418819
30
0
11
0
21
129.16653939418819
31
0
0
LINE
5
252
100
AcDbEntity
8
0
100
AcDbLine
10
2.7727367836785888
20
130.6156022591704
30
0
11
0
21
130.6156022591704
31
0
0
LINE
5
253
100
AcDbEntity
8
0
100
AcDbLine
10
13.290934476049316
20
130.6156022591704
30
0
11
5.000000074505806
21
130.6156022591704
31
0
0
LINE
5
254
100
AcDbEntity
8
0
100
AcDbLine
10
15.189706506025979
20
130.6156022591704
30
0
11
20
21
130.6156022591704
31
0
0
LINE
5
255
100
AcDbEntity
8
0
100
AcDbLine
10
8.5939720861070441
20
132.26453586415013
30
0
11
0
21
132.26453586415013
31
0
0
LINE
5
256
100
AcDbEntity
8
0
100
AcDbLine
10
2.7227690986792008
20
133.66363104413293
30
0
11
0
21
133.66363104413293
31
0
0
LINE
5
257
100
AcDbEntity
8
0
100
AcDbLine
10
8.4690528736085788
20
135.31256464911269
30
0
11
0
21
135.31256464911269
31
0
0
LINE
5
258
100
AcDbEntity
8
0
100
AcDbLine
10
2.7477529411788937
20
136.76162751409487
30
0
11
0
21
136.76162751409487
31
0
0
LINE
5
259
100
AcDbEntity
8
0
100
AcDbLine
10
13.240966791049928
20
136.76162751409487
30
0
11
5.000000074505806
21
136.76162751409487
31
0
0
LINE
5
260
100
AcDbEntity
8
0
100
AcDbLine
10
13.215982948550236
20
133.66363104413293
30
0
11
5.000000074505806
21
133.66363104413293
31
0
0
LINE
5
261
100
AcDbEntity
8
0
100
AcDbLine
10
15.239674191025365
20
133.66363104413293
30
0
11
20.000000298023224
21
133.66363104413293
31
0
0
LINE
5
262
100
AcDbEntity
8
0
100
AcDbLine
10
10.292873376086165
20
132.26453586415013
30
0
11
19.000000283122063
21
132.26453586415013
31
0
0
LINE
5
263
100
AcDbEntity
8
0
100
AcDbLine
10
10.267889533586469
20
135.31256464911269
30
0
11
19.000000283122063
21
135.31256464911269
31
0
0
LINE
5
264
100
AcDbEntity
8
0
100
AcDbLine
10
15.239674191025363
20
136.76162751409487
30
0
11
20.000000298023224
21
136.76162751409487
31
0
0
LINE
5
265
100
AcDbEntity
8
0
100
AcDbLine
10
10.367824903585241
20
138.4105611190746
30
0
11
19.000000283122063
21
138.4105611190746
31
0
0
LINE
5
266
100
AcDbEntity
8
0
100
AcDbLine
10
8.5939720861070423
20
138.4105611190746
30
0
11
0
21
138.4105611190746
31
0
0
LINE
5
267
100
AcDbEntity
8
0
100
AcDbLine
10
2.8726721536773581
20
139.80965629905739
30
0
11
0
21
139.80965629905739
31
0
0
LINE
5
268
100
AcDbEntity
8
0
100
AcDbLine
10
5.000000074505806
20
139.80965629905739
30
0
11
13.265950633549622
21
139.80965629905739
31
0
0
LINE
5
269
100
AcDbEntity
8
0
100
AcDbLine
10
20.000000298023224
20
139.80965629905739
30
0
11
15.364593403523831
21
139.80965629905739
31
0
0
LINE
5
270
100
AcDbEntity
8
0
100
AcDbLine
10
10.417792588584627
20
141.43360606153743
30
0
11
19.000000283122063
21
141.43360606153743
31
0
0
LINE
5
271
100
AcDbEntity
8
0
100
AcDbLine
10
8.4690528736085788
20
141.43360606153743
30
0
11
0
21
141.43360606153743
31
0
0
LINE
5
272
100
AcDbEntity
8
0
100
AcDbLine
10
2.7727367836785852
20
142.88266892651964
30
0
11
0
21
142.88266892651964
31
0
0
LINE
5
273
100
AcDbEntity
8
0
100
AcDbLine
10
5.000000074505806
20
142.88266892651964
30
0
11
13.265950633549618
21
142.88266892651964
31
0
0
LINE
5
274
100
AcDbEntity
8
0
100
AcDbLine
10
20.000000298023224
20
142.88266892651964
30
0
11
15.239674191025365
21
142.88266892651964
31
0
0
LINE
5
275
100
AcDbEntity
8
0
100
AcDbLine
10
10.353950311084596
20
144.51451236212503
30
0
11
19.000000283122063
21
144.51451236212503
31
0
0
LINE
5
276
100
AcDbEntity
8
0
100
AcDbLine
10
8.5689882436073521
20
144.51451236212503
30
0
11
0
21
144.51451236212503
31
0
0
LINE
5
277
100
AcDbEntity
8
0
100
AcDbLine
10
2.6456950673517254
20
145.90956469151226
30
0
11
0
21
145.90956469151226
31
0
0
LINE
5
278
100
AcDbEntity
8
0
100
AcDbLine
10
13.2149898340652
20
145.90956469151226
30
0
11
5.000000074505806
21
145.90956469151226
31
0
0
LINE
5
279
100
AcDbEntity
8
0
100
AcDbLine
10
15.272100896042993
20
145.90956469151226
30
0
11
20.000000298023224
21
145.90956469151226
31
0
0
LINE
5
280
100
AcDbEntity
8
0
100
AcDbLine
10
10.353950311084596
20
147.58835647772403
30
0
11
19.000000283122063
21
147.58835647772403
31
0
0
LINE
5
281
100
AcDbEntity
8
0
100
AcDbLine
10
8.5096438417251985
20
147.58835647772403
30
0
11
0
21
147.58835647772403
31
0
0
LINE
5
282
100
AcDbEntity
8
0
100
AcDbLine
10
2.7166299315578546
20
148.98340880711126
30
0
11
0
21
148.98340880711126
31
0
0
LINE
5
283
100
AcDbEntity
8
0
100
AcDbLine
10
2.7875647957639869
20
152.0000022649765
30
0
11
0
21
152.0000022649765
31
0
0
LINE
5
284
100
AcDbEntity
8
0
100
AcDbLine
10
8.4859988869898189
20
150.68584554805841
30
0
11
0
21
150.68584554805841
31
0
0
LINE
5
285
100
AcDbEntity
8
0
100
AcDbLine
10
13.285924698271332
20
148.98340880711126
30
0
11
5.000000074505806
21
148.98340880711126
31
0
0
LINE
5
286
100
AcDbEntity
8
0
100
AcDbLine
10
15.272100896042991
20
148.98340880711126
30
0
11
20
21
148.98340880711126
31
0
0
LINE
5
287
100
AcDbEntity
8
0
100
AcDbLine
10
10.353950311084596
20
150.68584554805841
30
0
11
19.000000283122063
21
150.68584554805841
31
0
0
LINE
5
288
100
AcDbEntity
8
0
100
AcDbLine
10
15.272100896042989
20
152.0000022649765
30
0
11
20.000000298023224
21
152.0000022649765
31
0
0
LINE
5
289
100
AcDbEntity
8
0
100
AcDbLine
10
5.000000074505806
20
152.0000022649765
30
0
11
13.285924698271332
21
152.0000022649765
31
0
0
LINE
5
290
100
AcDbEntity
8
0
100
AcDbLine
10
10.495820039496856
20
153.68875479945126
30
0
11
19.000000283122063
21
153.68875479945126
31
0
0
LINE
5
291
100
AcDbEntity
8
0
100
AcDbLine
10
8.462353932254441
20
153.68875479945126
30
0
11
0
21
153.68875479945126
31
0
0
LINE
5
292
100
AcDbEntity
8
0
100
AcDbLine
10
3.0000000447034836
20
155.15474199304464
30
0
11
0
21
155.15474199304464
31
0
0
LINE
5
293
100
AcDbEntity
8
0
100
AcDbLine
10
13.28592469827133
20
155.15474199304464
30
0
11
5.000000074505806
21
155.15474199304464
31
0
0
LINE
5
294
100
AcDbEntity
8
0
100
AcDbLine
10
15.272100896042991
20
155.15474199304464
30
0
11
20.000000298023224
21
155.15474199304464
31
0
0
LINE
5
295
100
AcDbEntity
8
0
100
AcDbLine
10
10.353950311084594
20
156.80988882452101
30
0
11
19.000000283122063
21
156.80988882452101
31
0
0
LINE
5
296
100
AcDbEntity
8
0
100
AcDbLine
10
8.5096438417251967
20
156.80988882452101
30
0
11
0
21
156.80988882452101
31
0
0
LINE
5
297
100
AcDbEntity
8
0
100
AcDbLine
10
2.787564795763986
20
158.20494115390827
30
0
11
0
21
158.20494115390827
31
0
0
LINE
5
298
100
AcDbEntity
8
0
100
AcDbLine
10
13.167699924594444
20
158.20494115390827
30
0
11
5.000000074505806
21
158.20494115390827
31
0
0
LINE
5
299
100
AcDbEntity
8
0
100
AcDbLine
10
15.272100896042989
20
158.20494115390827
30
0
11
20.000000298023224
21
158.20494115390827
31
0
0
LINE
5
300
100
AcDbEntity
8
0
100
AcDbLine
10
0
20
160.00000238418579
30
0
11
20
21
160.00000238418579
31
0
0
LINE
5
301
100
AcDbEntity
8
0
100
AcDbLine
10
0
20
170
30
0
11
20
21
170
31
0
0
ARC
5
302
100
AcDbEntity
8
0
100
AcDbCircle
10
10
20
170
30
0
40
10
210
0
220
-0
230
1
100
AcDbArc
50
0
51
180
0
ENDSEC
0
SECTION
2
OBJECTS
0
DICTIONARY
5
C
100
AcDbDictionary
3
ACAD_GROUP
350
D
3
ACAD_MLINESTYLE
350
17
0
DICTIONARY
5
D
100
AcDbDictionary
0
DICTIONARY
5
1A
330
C
100
AcDbDictionary
0
DICTIONARY
5
17
100
AcDbDictionary
0
ENDSEC
0
EOF
